<?xml version="1.0" encoding="UTF-8"?>
<!-- Generator: Adobe Illustrator 27.5.0, SVG Export Plug-In . SVG Version: 6.00 Build 0)  -->
<svg xmlns="http://www.w3.org/2000/svg" xmlns:xlink="http://www.w3.org/1999/xlink" version="1.1" id="Layer_1" x="0px" y="0px" viewBox="0 0 786.4 184" style="enable-background:new 0 0 786.4 184;" xml:space="preserve">
<style type="text/css">
	.st0{fill:#FFFFFF;}
	.st1{fill:#81A7BE;}
	.st2{fill:#00B0CA;}
	.st3{fill:#28B3A6;}
	.st4{opacity:0.8;fill:url(#SVGID_1_);enable-background:new    ;}
	.st5{opacity:0.9;fill:url(#SVGID_00000107565486412224928070000009478989453319757196_);enable-background:new    ;}
	.st6{mask:url(#a_00000082342168065411287820000012644547774129034896_);}
	.st7{fill:url(#SVGID_00000062881648292892748610000008000571098913856401_);}
	.st8{clip-path:url(#SVGID_00000074421713549816095940000004771996745935371654_);}
</style>
<path d="M184.6,100.8v-45c0-9.3,7.5-16.8,16.7-16.8h16.2c9.3,0,16.8,7.6,16.7,16.8v1.6c0,0.9-0.7,1.7-1.7,1.7c0,0,0,0,0,0h-3.3  c-0.9,0-1.7-0.7-1.7-1.7c0,0,0,0,0,0v-1.7c0.1-5.5-4.4-10.1-9.9-10.1c0,0,0,0,0,0h-16.3c-5.5,0-10,4.5-10,10v45.1  c0,5.5,4.5,10,10,10h16.2c5.5,0,10-4.5,10-10v-4c0-1.9,1.5-3.4,3.4-3.4c0,0,0,0,0,0h1.7c0.9,0,1.7,0.7,1.7,1.7c0,0,0,0,0,0v5.8  c0,9.2-7.4,16.7-16.6,16.7c0,0,0,0,0,0h-16.3c-9.2,0-16.7-7.4-16.7-16.6c0,0,0,0,0,0L184.6,100.8z M287.9,74c0-5.5-4.5-10-10-10  h-23.6v52c0,0.9-0.7,1.7-1.6,1.7c0,0,0,0,0,0h-3.4c-0.9,0-1.7-0.7-1.7-1.7c0,0,0,0,0,0V40.7c0-0.9,0.8-1.6,1.7-1.6c0,0,0,0,0,0h1.6  c1.8,0,3.4,1.4,3.4,3.3c0,0,0,0,0,0v14.9h23.5c9.3,0,16.8,7.5,16.8,16.7c0,0,0,0,0,0v42c0,0.9-0.7,1.7-1.7,1.7c0,0,0,0,0,0h-3.3  c-0.9,0-1.7-0.7-1.7-1.7c0,0,0,0,0,0L287.9,74L287.9,74z M305.2,100.8v-2.7c0-9.2,7.4-16.7,16.6-16.8c0,0,0,0,0,0h23.7V74  c0-5.5-4.5-10-10-10H318c-1.9,0-3.4-1.5-3.4-3.3c0,0,0,0,0,0V59c0-0.9,0.7-1.7,1.7-1.7c0,0,0,0,0,0h19.1c9.3,0,16.8,7.4,16.9,16.7  c0,0,0,0,0,0v40.3c0,1.8-1.4,3.4-3.3,3.4c0,0,0,0,0,0H322C312.7,117.7,305.2,110.1,305.2,100.8C305.3,100.9,305.3,100.9,305.2,100.8  L305.2,100.8z M312,98.2v2.7c0,5.6,4.4,10.1,10,10.2h23.5V88.1H322C316.5,88.1,312,92.6,312,98.2L312,98.2z M368.2,74  c0-9.2,7.4-16.7,16.6-16.7c0,0,0,0,0,0h9.9c0.9,0,1.6,0.7,1.7,1.6v1.7c-0.1,1.9-1.5,3.4-3.4,3.4H385c-5.5,0-10,4.5-10,10v42  c0,0.9-0.8,1.6-1.7,1.6H370c-0.9,0-1.7-0.7-1.7-1.6L368.2,74z M416.5,132.4c0-1.9,1.5-3.3,3.4-3.3c0,0,0,0,0,0h17.4  c5.6,0,10.1-4.5,10.1-10.1v-5.3h-23.5c-9.3,0-16.8-7.6-16.7-16.8c0,0,0,0,0,0V74c0-9.2,7.4-16.7,16.6-16.7c0,0,0,0,0,0h28.6  c0.9,0,1.7,0.7,1.7,1.6c0,0,0,0,0,0v60c0,9.3-7.5,16.8-16.8,16.8h-19.1c-0.9,0-1.7-0.7-1.7-1.7c0,0,0,0,0,0V132.4L416.5,132.4z   M413.9,74v22.8c-0.1,5.5,4.3,10.1,9.9,10.1c0,0,0,0,0,0h23.7v-43h-23.5C418.3,63.9,413.9,68.4,413.9,74L413.9,74L413.9,74z   M470.1,100.8V74c0-9.2,7.4-16.7,16.6-16.7c0,0,0,0,0,0h13.5c9.3,0,16.8,7.5,16.8,16.7c0,0,0,0,0,0v13.4c0,1.8-1.4,3.4-3.3,3.4  c0,0,0,0,0,0h-37v10c0,5.5,4.5,10.1,10,10.1h13.4c3.9,0,7.4-2.3,9.1-5.7c0.2-0.6,0.8-1,1.5-1h3.6c0.9,0,1.7,0.7,1.7,1.6  c0,0.2,0,0.5-0.1,0.7c-1,2.7-2.7,5.1-4.9,7c-3,2.7-6.9,4.2-11,4.2h-13.4C477.6,117.6,470.1,110.1,470.1,100.8L470.1,100.8z   M476.8,74v10.1h33.6V74c0-5.5-4.5-10-10-10h-13.6C481.3,64,476.8,68.5,476.8,74L476.8,74z M533.1,42.4c0-1.8,1.4-3.4,3.3-3.4H566  c9.3,0,16.8,7.6,16.7,16.8v14.1c0,9.2-7.4,16.7-16.6,16.7c0,0,0,0,0,0h-26.3v27.6c0,1.8-1.5,3.3-3.4,3.3c0,0,0,0,0,0h-1.6  c-0.9,0-1.7-0.7-1.7-1.6c0,0,0,0,0,0L533.1,42.4L533.1,42.4z M566,79.9c5.5,0,10-4.5,10-10V55.8c0.1-5.5-4.4-10.1-9.9-10.1  c0,0,0,0,0,0h-26.3v34.2L566,79.9z M590.8,100.8v-2.7c0-9.2,7.4-16.7,16.6-16.8c0,0,0,0,0,0H631V74c0-5.5-4.5-10-10-10h-17.5  c-1.9,0-3.4-1.5-3.4-3.3c0,0,0,0,0,0V59c0-0.9,0.7-1.7,1.7-1.7c0,0,0,0,0,0h19.1c9.3,0,16.8,7.4,16.8,16.7v40.3  c0,1.9-1.5,3.4-3.3,3.4c0,0,0,0,0,0h-26.9C598.2,117.7,590.7,110.1,590.8,100.8C590.8,100.9,590.8,100.9,590.8,100.8L590.8,100.8z   M597.5,98.2v2.7c0,5.5,4.5,10.1,10,10.1H631V88.1h-23.5C602,88.1,597.5,92.6,597.5,98.2L597.5,98.2z M694,74  c0-5.6-4.4-10.1-10-10.1c0,0,0,0,0,0h-23.5v52c0,0.9-0.7,1.7-1.7,1.7c0,0,0,0,0,0h-3.3c-0.9,0-1.7-0.7-1.7-1.6c0,0,0,0,0,0v-57  c0-0.9,0.7-1.7,1.7-1.7c0,0,0,0,0,0h28.5c9.3,0,16.8,7.5,16.8,16.8v41.9c0,0.9-0.7,1.7-1.6,1.7c0,0,0,0,0,0h-3.4  c-0.9,0-1.7-0.7-1.7-1.6c0,0,0,0,0,0L694,74L694,74z M716.7,100.8V74c0-9.2,7.4-16.7,16.6-16.7c0,0,0,0,0,0h13.5  c9.3,0,16.8,7.5,16.8,16.7v13.4c0,1.8-1.4,3.4-3.3,3.4c0,0,0,0,0,0h-37v10c0,5.5,4.5,10.1,10,10.1h13.4c3.9,0,7.4-2.3,9.2-5.8  c0.2-0.6,0.8-1,1.5-1h3.6c0.9,0,1.7,0.7,1.7,1.6c0,0,0,0,0,0c0,0.2,0,0.4-0.1,0.7c-1,2.7-2.7,5.1-4.9,7c-3,2.7-6.9,4.2-11,4.2h-13.4  C724.2,117.5,716.8,110.1,716.7,100.8z M723.4,74v10.1H757V74c0-5.5-4.5-10-10-10h-13.5C727.9,64,723.4,68.4,723.4,74  C723.4,73.9,723.4,73.9,723.4,74L723.4,74z M779.7,40.7c0-0.9,0.7-1.7,1.7-1.7c0,0,0,0,0,0h1.6c1.8,0,3.4,1.4,3.4,3.3c0,0,0,0,0,0  v73.5c0,0.9-0.7,1.7-1.7,1.7c0,0,0,0,0,0h-3.3c-0.9,0-1.7-0.7-1.7-1.6c0,0,0,0,0,0L779.7,40.7z"></path>
<g>
	<circle class="st0" cx="78" cy="78" r="78"></circle>
	<path class="st1" d="M78.1,86.3c-4.6,0-8.4-3.7-8.4-8.3c0-4.6,3.7-8.4,8.3-8.4c4.6,0,8.4,3.7,8.4,8.3   C86.5,82.5,82.8,86.2,78.1,86.3C78.1,86.3,78.1,86.3,78.1,86.3z"></path>
	<path class="st2" d="M156.1,77.9c0,43.1-35,78.1-78.2,78.1c-23.1,0-45-10.2-59.8-27.9l11.3-20.3c26,42.3,90.2,33.7,103.8-14.8   h-12.6c-13.7,39.1-68.2,40.1-84.1,2.5l0.2-0.4h15.5c1,2.3,3.7,3.3,6,2.3c2.3-1,3.3-3.7,2.3-6s-3.7-3.3-6-2.3   c-1,0.5-1.8,1.3-2.3,2.3H34.6c-6,10.4-2,3.5-19.1,33.6h-0.1c-2.5-3.4-4.8-7.1-6.7-10.9l18.2-31.4h37c2.6,7.9,11.1,12.1,19,9.5   c4.6-1.5,8.1-5.1,9.5-9.7h42.1l17.2-29.8C154.7,60.7,156.1,69.3,156.1,77.9z"></path>
	<path class="st3" d="M147.4,41.8c-0.1,0.1-18,31.3-18.1,31.4h-37c-2.6-7.9-11.2-12.1-19-9.4c-4.5,1.5-8.1,5.1-9.5,9.7H21.7   L4.3,103.5C-13,53.4,24.1,0,78.2,0c23,0,44.8,10.1,59.6,27.7l-11.3,20c-10.9-17.5-30.3-27.8-50.9-26.9h-0.3c-2.8,0.1-5.5,0.5-8.3,1   c-8,1.6-15.7,4.9-22.3,9.7c-6,4.3-11.1,9.8-15,16c-3,4.9-5.3,10.2-6.8,15.8h12.6c4.8-13.8,15.5-24.6,31.3-29.1h0.1   c20-5.7,43.5,4.8,52.6,25.8H104c-1-2.3-3.7-3.3-5.9-2.3s-3.3,3.7-2.3,5.9c1,2.3,3.7,3.3,5.9,2.3c1-0.4,1.8-1.3,2.3-2.3h17.7   c6.4-11.1,2.8-4.7,18.7-32.8C143,34.3,145.4,38,147.4,41.8z"></path>
	<g>
		
			<linearGradient id="SVGID_1_" gradientUnits="userSpaceOnUse" x1="53.3145" y1="701.6296" x2="103.5249" y2="743.7499" gradientTransform="matrix(1 0 0 1 0.41 -655.4998)">
			<stop offset="0" style="stop-color:#FFFFFF"></stop>
			<stop offset="7.000000e-02" style="stop-color:#E1F5F3"></stop>
			<stop offset="0.18" style="stop-color:#B6E5E1"></stop>
			<stop offset="0.29" style="stop-color:#90D8D1"></stop>
			<stop offset="0.41" style="stop-color:#71CDC4"></stop>
			<stop offset="0.54" style="stop-color:#59C5BA"></stop>
			<stop offset="0.67" style="stop-color:#48BFB3"></stop>
			<stop offset="0.82" style="stop-color:#3EBBAF"></stop>
			<stop offset="1" style="stop-color:#3BBAAE"></stop>
			<stop offset="1" style="stop-color:#FFFFFF;stop-opacity:0.9"></stop>
		</linearGradient>
		<path class="st4" d="M116.6,73.2H92.3c-2.6-7.9-11.2-12.1-19-9.4c-4.5,1.5-8.1,5.1-9.5,9.7H39.3c2.4-21.4,21.7-36.7,43-34.3    c12.9,1.5,24.3,9.3,30.2,20.9H104c-1-2.3-3.7-3.3-5.9-2.3s-3.3,3.7-2.3,5.9c1,2.3,3.7,3.3,5.9,2.3c1-0.4,1.8-1.3,2.3-2.3h10.3    C115.4,66.7,116.2,69.9,116.6,73.2z"></path>
		
			<linearGradient id="SVGID_00000020394335283946290110000001387181072885344394_" gradientUnits="userSpaceOnUse" x1="51.556" y1="722.9901" x2="101.6981" y2="765.0502" gradientTransform="matrix(1 0 0 1 0.41 -655.4998)">
			<stop offset="0" style="stop-color:#FFFFFF;stop-opacity:0.6"></stop>
			<stop offset="6.000000e-02" style="stop-color:#DBF4F8;stop-opacity:0.66"></stop>
			<stop offset="0.17" style="stop-color:#9FE1EB;stop-opacity:0.76"></stop>
			<stop offset="0.3" style="stop-color:#6ED1E0;stop-opacity:0.85"></stop>
			<stop offset="0.43" style="stop-color:#47C5D8;stop-opacity:0.92"></stop>
			<stop offset="0.58" style="stop-color:#2CBDD2;stop-opacity:0.96"></stop>
			<stop offset="0.75" style="stop-color:#1CB8CF;stop-opacity:0.99"></stop>
			<stop offset="1" style="stop-color:#17B6CE"></stop>
			<stop offset="1" style="stop-color:#16AFC6"></stop>
			<stop offset="1" style="stop-color:#118A9D"></stop>
			<stop offset="1" style="stop-color:#0D6977"></stop>
			<stop offset="1" style="stop-color:#0A4D57"></stop>
			<stop offset="1" style="stop-color:#07343B"></stop>
			<stop offset="1" style="stop-color:#042125"></stop>
			<stop offset="1" style="stop-color:#021214"></stop>
			<stop offset="1" style="stop-color:#010809"></stop>
			<stop offset="1" style="stop-color:#000202"></stop>
			<stop offset="1" style="stop-color:#000000"></stop>
		</linearGradient>
		<path style="opacity:0.9;fill:url(#SVGID_00000020394335283946290110000001387181072885344394_);enable-background:new    ;" d="    M116.6,82.3c-2.5,21.3-21.8,36.6-43.1,34.2C60.3,115,48.8,106.9,43,95h9.3c1,2.3,3.7,3.3,6,2.3c2.3-1,3.3-3.7,2.3-6    s-3.7-3.3-6-2.3c-1,0.5-1.8,1.3-2.3,2.3H41.4c-1-2.8-1.7-5.7-2.1-8.7h24.6c2.6,7.9,11.1,12.1,19,9.5c4.6-1.5,8.1-5.1,9.6-9.7    L116.6,82.3z"></path>
		<defs>
			<filter id="Adobe_OpacityMaskFilter" x="68.8" y="65.6" width="20" height="23.1">
				<feColorMatrix type="matrix" values="1 0 0 0 0  0 1 0 0 0  0 0 1 0 0  0 0 0 1 0"></feColorMatrix>
			</filter>
		</defs>
		
			<mask maskUnits="userSpaceOnUse" x="68.8" y="65.6" width="20" height="23.1" id="e_00000049940955066541424100000015200940758419924127_">
			<defs>
				
					<filter id="Adobe_OpacityMaskFilter_00000075159450142954049700000014349622345506592145_" x="69.8" y="69.5" width="16.8" height="16.8">
					<feColorMatrix type="matrix" values="1 0 0 0 0  0 1 0 0 0  0 0 1 0 0  0 0 0 1 0"></feColorMatrix>
				</filter>
			</defs>
			
				<mask maskUnits="userSpaceOnUse" x="69.8" y="69.5" width="16.8" height="16.8" id="a_00000082342168065411287820000012644547774129034896_" style="filter:url(#Adobe_OpacityMaskFilter);">
			</mask>
			<g class="st6">
				
					<radialGradient id="SVGID_00000089554934317705184350000002861240466522474928_" cx="39.91" cy="700.6099" r="52.57" gradientTransform="matrix(1 0 0 1 0.41 -655.4998)" gradientUnits="userSpaceOnUse">
					<stop offset="0" style="stop-color:#FFFFFF"></stop>
					<stop offset="1" style="stop-color:#000000"></stop>
				</radialGradient>
				<path style="fill:url(#SVGID_00000089554934317705184350000002861240466522474928_);" d="M78.1,69.5c4.6,0,8.4,3.8,8.4,8.4      s-3.8,8.4-8.4,8.4c-4.6,0-8.4-3.8-8.4-8.4v0C69.8,73.3,73.5,69.5,78.1,69.5z"></path>
			</g>
		</mask>
		<g>
			<g>
				<defs>
					<path id="SVGID_00000046303576310380382050000016592067363601961353_" d="M78.1,69.5c4.6,0,8.4,3.8,8.4,8.4s-3.8,8.4-8.4,8.4       c-4.6,0-8.4-3.8-8.4-8.4v0C69.8,73.3,73.5,69.5,78.1,69.5z"></path>
				</defs>
				<clipPath id="SVGID_00000034795445684670147600000006743842935858415754_">
					<use xlink:href="#SVGID_00000046303576310380382050000016592067363601961353_" style="overflow:visible;"></use>
				</clipPath>
				<g style="clip-path:url(#SVGID_00000034795445684670147600000006743842935858415754_);">
					<path class="st0" d="M69.8,69.5h16.8v16.8H69.8V69.5z"></path>
					<path class="st0" d="M87.5,68.5H68.8v18.8h0.9v1.4c8.4-5.7,15.1-13.7,19-23.1L87.5,68.5z"></path>
				</g>
			</g>
		</g>
	</g>
</g>
</svg>
