<?xml version="1.0" encoding="UTF-8"?>
<svg xmlns="http://www.w3.org/2000/svg" width="184" height="40.263" version="1.1" viewBox="0 0 184 40.263">
  <g id="bilreda_logo">
    <g id="Logo">
      <path id="BR_logo" d="m20.131 0a20.131 20.131 0 0 0-20.131 20.131 20.131 20.131 0 0 0 20.131 20.131 20.131 20.131 0 0 0 20.131-20.131 20.131 20.131 0 0 0-20.131-20.131zm-9.7386 13.14h18.511c1.5006 0 2.5939 0.16793 3.2794 0.50426 0.53038 0.25872 0.97663 0.6986 1.3388 1.3195 0.36221 0.62091 0.54337 1.2999 0.54337 2.0372 0 1.6946-0.71162 2.7492-2.1346 3.1632v0.03865c0.95725 0.27166 1.4813 0.98328 1.5719 2.1346l0.23233 3.0271c0.0388 0.58213 0.26537 1.1254 0.67932 1.6298h-5.9762c-0.10348-0.2199-0.20045-1.093-0.291-2.6194-0.06469-1.0995-0.53696-1.6492-1.4166-1.6492h-3.8811v4.2687h-11.856c-3.6091 0-5.4136-1.5006-5.4136-4.5016-3e-6 -0.63387 0.16792-1.2289 0.50426-1.7851 0.43982-0.7115 1.0609-1.171 1.8629-1.378v-0.03865c-0.51744-0.20698-0.91831-0.54966-1.2029-1.0283-0.29752-0.49156-0.44628-1.0476-0.44628-1.6685 0-2.3027 1.3648-3.4542 4.0944-3.4542zm2.9686 3.3764c-0.90551 0-1.3582 0.2909-1.3582 0.87301 0 0.60799 0.45265 0.91189 1.3582 0.91189h4.0168v-1.7849zm9.4883 0.1164v2.6002h3.8811c1.009 0 1.5139-0.43327 1.5139-1.3 0-0.86671-0.53046-1.3002-1.5912-1.3002zm-10.031 4.8123c-0.94432 0-1.4166 0.36186-1.4166 1.0863 0 0.72442 0.47228 1.087 1.4166 1.087h4.5598v-2.1733z" fill="#fadf06"></path>
      <g id="BILREDA" fill="#141414">
        <path id="_B" d="m60.742 19.372v-0.039c1.0769-0.4739 1.7457-1.5674 1.677-2.742 0-2.249-1.282-3.512-4.163-3.512h-12.665v14.085h12.054c4.124 0 5.5-1.815 5.5-4.577 0.0177-1.4931-0.9695-2.812-2.407-3.216m-9.701-2.86h4.2c1.123 0 1.381 0.376 1.381 0.887 0 0.553-0.257 0.927-1.381 0.927h-4.2zm4.754 7.221h-4.754v-2.209h4.754c1.1 0 1.44 0.492 1.44 1.1 0 0.631-0.336 1.105-1.44 1.105"></path>
        <path id="_I" d="m68.873 13.079h5.562v14.086h-5.562z"></path>
        <path id="_L" d="m86.271 13.079h-5.563v14.085h14.184v-3.787h-8.621z"></path>
        <path id="_R" d="m116.3 22.43c1e-3 -0.9959-0.648-1.8757-1.6-2.169v-0.04c1.389-0.4294 2.293-1.7662 2.174-3.215 0.029-1.4008-0.704-2.7073-1.914-3.413-1.058-0.4218-2.198-0.5975-3.334-0.514h-11.721v14.086h5.564v-4.34h3.945c1.026 0 1.381 0.631 1.44 1.677-0.031 0.8976 0.07 1.7949 0.3 2.663h6.077c-0.387-0.4733-0.627-1.0492-0.691-1.657zm-6.886-3.156h-3.945v-2.644h3.867c0.927 0 1.617 0.257 1.617 1.323 0 0.887-0.453 1.321-1.539 1.321"></path>
        <path id="_E" d="m122.83 27.165h14.973v-3.432h-9.41v-1.895h8.74v-3.433h-8.74v-1.893h9.41v-3.433h-14.973z"></path>
        <path id="_D" d="m154.43 13.079h-10.831v14.086h10.949c4.676 0 7.181-2.092 7.181-7.043 0-5.188-2.525-7.042-7.3-7.042m-2.072 10.534h-3.2v-6.984h3.2c2.545 0 3.571 1.263 3.571 3.492s-1.026 3.492-3.571 3.492"></path>
        <path id="_A" d="m178 13.079h-6.826l-6 14.086h5.918l0.593-1.617h5.797l0.591 1.617h5.919zm-5.09 9.035 1.657-4.774h0.039l1.657 4.774z"></path>
      </g>
    </g>
  </g>
</svg>
