<?xml version="1.0" encoding="UTF-8"?>
<svg xmlns="http://www.w3.org/2000/svg" width="139" height="29" viewBox="0 0 139 29" fill="none">
  <g clip-path="url(#clip0_6402_11066)">
    <path d="M43.4615 8.47501H45.7692V20.0135H43.4615V15.0135H37.3077V20.0135H35V8.47501H37.3077V13.0904H43.4615V8.47501ZM60.3846 14.8942C60.3846 16.875 59.3058 18.475 57.3077 18.475C55.3096 18.475 54.2308 16.875 54.2308 14.8942V8.47501H51.9231V15.0404C51.9231 17.9635 53.7346 20.3981 57.3077 20.3981C60.8808 20.3981 62.6923 17.9327 62.6923 15.0404V8.47693H60.3846V14.8923V14.8942ZM78.375 16.7115C78.375 18.7269 77.0096 20.0096 74.3462 20.0096H68.075V8.47693H74.2481C76.75 8.47693 78.1135 9.66347 78.1135 11.5962C78.1135 12.8308 77.2519 13.6423 76.375 13.9346C77.4481 14.2596 78.3731 15.2019 78.3731 16.7115H78.375ZM70.3846 13.0904H74.0058C75.225 13.0904 75.8731 12.6654 75.8731 11.7404C75.8731 10.7654 75.2404 10.3269 74.0058 10.3269H70.3846V13.0904ZM76.15 16.5654C76.15 15.5423 75.4846 15.0115 74.0865 15.0115H70.3846V18.0904H74.0865C75.4827 18.0904 76.15 17.5885 76.15 16.5654ZM118.573 10.3481C120.41 10.3481 121.383 11.4692 121.708 12.0865H123.95C123.642 10.7385 122.131 8.35001 118.573 8.35001C115.015 8.35001 112.758 10.9327 112.758 14.3115C112.758 17.6904 115.194 20.2731 118.573 20.2731C122.277 20.2731 123.673 17.7385 123.95 16.5212H121.74C121.431 17.1058 120.587 18.275 118.573 18.275C116.396 18.275 115.015 16.4731 115.015 14.3115C115.015 12.15 116.396 10.3481 118.573 10.3481ZM128 8.47501V10.7808H132.308V20.0096H134.615V10.7808H139V8.47501H128ZM89.2308 16.1654C89.2308 17.2269 88.3692 18.0904 87.3077 18.0904H82.5V20.0115H88.0769C89.9885 20.0115 91.5385 18.4615 91.5385 16.55V8.47501H89.2308V16.1654ZM108.235 14.7808H98.775C98.8904 16.8192 100.41 18.4135 102.642 18.4135C104.875 18.4135 105.819 17.2385 106.025 16.8846H108.096C107.935 17.8154 106.462 20.2731 102.64 20.2731C99.1423 20.2731 96.6558 17.7481 96.6558 14.5365C96.6558 11.325 99.0962 8.80001 102.433 8.80001C105.769 8.80001 108.233 11.1923 108.233 14.7808H108.235ZM98.9135 13.0923H105.908C105.4 11.4558 104.135 10.5289 102.435 10.5289C100.619 10.5289 99.3538 11.5231 98.9154 13.0923H98.9135Z" fill="#06181B"></path>
    <path d="M0 14V29L25 15V0L0 14Z" fill="#1D91A2"></path>
  </g>
  <defs>
    <clipPath id="clip0_6402_11066">
      <rect width="139" height="29" fill="white"></rect>
    </clipPath>
  </defs>
</svg>
