<?xml version="1.0" encoding="UTF-8"?>
<svg xmlns="http://www.w3.org/2000/svg" id="Layer_1" data-name="Layer 1" viewBox="0 0 169.29 120.49">
  <defs>
    <style>
      .cls-1 {
        fill: #f9b816;
      }

      .cls-1, .cls-2, .cls-3, .cls-4, .cls-5, .cls-6 {
        stroke-width: 0px;
      }

      .cls-2 {
        opacity: .82;
      }

      .cls-2, .cls-3, .cls-4, .cls-5, .cls-6 {
        fill: #fff;
      }

      .cls-2, .cls-3, .cls-5, .cls-6 {
        isolation: isolate;
      }

      .cls-3 {
        opacity: .65;
      }

      .cls-5 {
        opacity: .3;
      }

      .cls-6 {
        opacity: .48;
      }
    </style>
  </defs>
  <path class="cls-1" d="M168.33,63.48C158.76,25.21,67.63-17.18,20.26,7.17-11.52,23.51-10.09,95.13,54.79,116.1c47.26,15.28,123.92-11.09,113.54-52.62Z"></path>
  <path class="cls-4" d="M52.94,36.79c0-4.04,2-6.06,5.98-6.06s5.89,2.02,5.89,6.06-1.96,6.02-5.89,6.02-5.81-2.01-5.98-6.02ZM58.92,40.9c2.4,0,3.6-1.39,3.6-4.16s-1.2-4.09-3.6-4.09-3.69,1.36-3.69,4.09,1.23,4.16,3.69,4.16ZM66.9,42.74v-11.92h5.33c2.43,0,3.65,1.12,3.65,3.36,0,2.43-1.66,3.9-4.99,4.41l-.32-1.97c2-.36,3-1.15,3-2.38,0-.99-.49-1.48-1.48-1.48h-2.98v9.98s-2.21,0-2.21,0ZM85.5,30.82v1.9h-5.97v3h5.68v1.98h-5.71v3.13h6.11v1.92h-8.28v-11.92h8.17ZM87.66,42.74v-11.92h2.21l6.29,8.68v-8.68h2.12v11.92h-2.21l-6.29-8.87v8.87s-2.12,0-2.12,0ZM62.7,64.26c-1.03.39-2.19.58-3.5.58-4.28,0-6.42-2.07-6.42-6.21,0-3.92,2.14-5.88,6.42-5.88,1.31,0,2.47.19,3.5.58v2c-1.05-.45-2.19-.68-3.33-.67-2.86,0-4.29,1.32-4.29,3.96,0,2.86,1.43,4.29,4.29,4.29,1.2,0,2.3-.22,3.33-.67v2.02ZM64.78,64.76v-11.92h2.21v4.92h5.88v-4.92h2.21v11.92h-2.21v-5.08h-5.88v5.08h-2.21ZM78.8,64.76h-2.27l5.06-11.92h2.38l5.17,11.92h-2.38l-1.36-3.25h-3.96l.76-1.92h2.4l-1.87-4.48-3.92,9.64h-.01ZM90.59,64.74v-11.9h5.42c2.43,0,3.65,1.06,3.65,3.19,0,1.44-.95,2.63-2.84,3.58l3.78,5.15h-2.78l-3.63-5.19v-1.01c2.11-.36,3.17-1.18,3.17-2.46,0-.88-.49-1.32-1.48-1.32h-3.03v9.96h-2.26ZM111.14,64.21c-.96.42-2.16.63-3.61.63-4.21,0-6.31-2.07-6.31-6.21,0-3.92,2.14-5.88,6.42-5.88,1.3,0,2.47.19,3.5.58v2c-1.05-.45-2.19-.68-3.33-.67-2.86,0-4.29,1.32-4.29,3.96,0,2.86,1.35,4.29,4.05,4.29.4,0,.86-.07,1.37-.2v-3.47h2.21v4.97ZM121.38,52.84v1.9h-5.97v3h5.68v1.98h-5.71v3.13h6.11v1.92h-8.27v-11.92h8.16,0ZM63.67,87.01h-2.27l5.06-11.92h2.38l5.17,11.92h-2.38l-1.36-3.25h-3.96l.76-1.92h2.4l-1.87-4.48-3.93,9.64h0ZM77.67,75.1v10h4.73v1.92h-6.94v-11.92h2.21ZM86.7,75.1v10h4.73v1.92h-6.94v-11.92h2.21ZM95.73,75.1v11.92h-2.21v-11.92h2.21ZM99.45,87.01h-2.27l5.06-11.92h2.38l5.17,11.92h-2.38l-1.36-3.25h-3.96l.76-1.92h2.4l-1.88-4.48-3.92,9.64h0ZM111.24,87.01v-11.92h2.21l6.29,8.68v-8.68h2.12v11.92h-2.21l-6.29-8.87v8.87s-2.12,0-2.12,0ZM133.87,86.51c-1.03.39-2.19.58-3.5.58-4.28,0-6.42-2.07-6.42-6.21,0-3.92,2.14-5.88,6.42-5.88,1.31,0,2.47.19,3.5.58v2c-1.05-.45-2.19-.68-3.33-.67-2.86,0-4.29,1.32-4.29,3.96,0,2.86,1.43,4.29,4.29,4.29,1.19,0,2.3-.22,3.33-.67v2.02ZM144.11,75.1v1.9h-5.97v3h5.68v1.97h-5.71v3.13h6.11v1.92h-8.28v-11.92h8.17Z"></path>
  <path class="cls-6" d="M42.18,70.05h-23.91c1.68,3.6,3.87,7.32,6.76,11.03,1.13,1.46,2.34,2.85,3.61,4.2h19.49c-2.71-5.23-4.61-10.39-5.95-15.23Z"></path>
  <path class="cls-4" d="M53.14,12.74c.06-.04-7.47-.38-14.14,1.11-3.29.73-6.24,1.75-10.09,3.76-3.84,2-8.07,6.38-10.75,11.02h23.92c2.28-7.04,6.58-13.02,11.06-15.88h0Z"></path>
  <path class="cls-3" d="M39.39,53.53c-.05-.79-.09-1.58-.11-2.37H13.24v.06c.34,4.13,1.26,9.41,3.47,15.17h24.55c-.96-4.23-1.58-8.53-1.87-12.86Z"></path>
  <path class="cls-2" d="M41.05,32.28h-24.72c-1.96,4.52-3.14,9.73-3.21,15.23h26.11c.06-5.45.69-10.6,1.82-15.23Z"></path>
  <path class="cls-5" d="M58.81,103.66c1.31.42,2.67.8,4.06,1.15-4.45-4.13-8.36-8.86-11.7-14.19-.35-.56-.68-1.13-1.02-1.7h-17.78c7.15,6.42,16,11.36,26.43,14.73h.01Z"></path>
</svg>
